<?xml version="1.0" encoding="utf-8"?>
<!-- Generator: Adobe Illustrator 24.1.1, SVG Export Plug-In . SVG Version: 6.00 Build 0)  -->
<svg version="1.1" id="Capa_1" xmlns="http://www.w3.org/2000/svg" xmlns:xlink="http://www.w3.org/1999/xlink" x="0px" y="0px"
	 width="248px" height="512px" viewBox="0 0 248 512" style="enable-background:new 0 0 248 512;" xml:space="preserve">
<style type="text/css">
	.st0{fill:#FFFFFF;}
</style>
<g>
	<g>
		<path class="st0" d="M109.8,5.9C109.8,5.9,109.8,5.9,109.8,5.9L5.8,110.4c-7.8,7.8-7.8,20.5,0.1,28.3c7.8,7.8,20.5,7.8,28.3-0.1
			L104,68.4l0,423.6c0,11,9,20,20,20s20-9,20-20l0-423.6l69.8,70.2c7.8,7.8,20.5,7.9,28.3,0.1c7.8-7.8,7.9-20.5,0.1-28.3L138.2,5.9
			c0,0,0,0,0,0C130.3-2,117.6-1.9,109.8,5.9z"/>
	</g>
</g>
</svg>
